# xmcd
#
# Track frame offsets:
# 150
# 17142
# 32755
# 45902
# 65320
# 89320
# 106530
# 118275
# 135815
# 156017
# 170802
#
# Disc length: 2733 seconds
#
# Revision: 2
# Processed by: cddbd v1.4PL0 Copyright (c) Steve Scherf et al.
# Submitted via: inCDius 2.0b9
#
DISCID=7f0aab0b
DTITLE=Dolly Varden - Forgiven now
DYEAR=2002
DGENRE=Alt. Country
TTITLE0=Surrounded by the sound
TTITLE1=Trying to live up
TTITLE2=Forgiven now
TTITLE3=The lotus hour
TTITLE4=Overwhelming
TTITLE5=Wish I were there
TTITLE6=There's a magic
TTITLE7=Time for me to leave
TTITLE8=Disappear
TTITLE9=1000 men like cigarettes
TTITLE10=Meant to be
EXTD=
EXTT0=
EXTT1=
EXTT2=
EXTT3=
EXTT4=
EXTT5=
EXTT6=
EXTT7=
EXTT8=
EXTT9=
EXTT10=
PLAYORDER=
